# 3ds Max Wavefront OBJ Exporter v0.97b - (c)2007 guruware
# File Created: 31.05.2015 20:45:35

mtllib cup03.mtl

#
# object Cylinder001
#

v  31.2757 129.2333 -22.9733
v  38.7227 129.2333 -0.0538
v  29.7319 1.1576 -0.0538
v  24.0020 1.1576 -17.6887
v  11.7792 129.2333 -37.1383
v  9.0010 1.1576 -28.5876
v  -12.3197 129.2333 -37.1383
v  -9.5414 1.1576 -28.5876
v  -31.8161 129.2333 -22.9733
v  -24.5425 1.1576 -17.6887
v  -39.2631 129.2333 -0.0538
v  -30.2724 1.1576 -0.0538
v  -31.8161 129.2333 22.8656
v  -24.5425 1.1576 17.5810
v  -12.3197 129.2333 37.0306
v  -9.5414 1.1576 28.4799
v  11.7793 129.2333 37.0306
v  9.0010 1.1576 28.4799
v  31.2757 129.2333 22.8656
v  24.0020 1.1576 17.5810
v  -0.2702 1.1576 -0.0538
v  31.2757 135.8831 -22.9733
v  38.7227 135.8831 -0.0538
v  40.2317 128.2393 -0.0538
v  32.4965 128.2393 -23.8603
v  11.7792 135.8831 -37.1383
v  12.2456 128.2393 -38.5735
v  -12.3197 135.8831 -37.1383
v  -12.7860 128.2393 -38.5735
v  -31.8161 135.8831 -22.9733
v  -33.0370 128.2393 -23.8603
v  -39.2631 135.8831 -0.0538
v  -40.7721 128.2393 -0.0538
v  -31.8161 135.8831 22.8656
v  -33.0370 128.2393 23.7526
v  -12.3197 135.8831 37.0306
v  -12.7860 128.2393 38.4658
v  11.7793 135.8831 37.0306
v  12.2456 128.2393 38.4658
v  31.2757 135.8831 22.8656
v  32.4965 128.2393 23.7526
v  29.9955 135.8831 -21.2140
v  36.6529 135.8831 -0.7247
v  11.2511 135.8831 -35.5128
v  -11.7915 135.8831 -35.5128
v  -30.4334 135.8831 -21.9687
v  -37.5540 135.8831 -0.0538
v  -30.4334 135.8831 21.8610
v  -11.7915 135.8831 35.4051
v  11.2511 135.8831 35.4051
v  29.8930 135.8831 21.8610
v  36.6529 140.4801 -0.7247
v  29.9955 140.4801 -21.2140
v  26.6768 140.4801 -18.8028
v  32.5507 140.4801 -0.7247
v  11.2511 140.4801 -35.5128
v  9.8953 140.4801 -31.3400
v  -11.7915 140.4801 -35.5128
v  -10.4357 140.4801 -31.3400
v  -30.4334 140.4801 -21.9687
v  -26.8838 140.4801 -19.3898
v  -37.5540 140.4801 -0.0538
v  -33.1664 140.4801 -0.0538
v  -30.4334 140.4801 21.8610
v  -26.8838 140.4801 19.2821
v  -11.7915 140.4801 35.4051
v  -10.4357 140.4801 31.2323
v  11.2511 140.4801 35.4051
v  9.8953 140.4801 31.2323
v  29.8930 140.4801 21.8610
v  26.3434 140.4801 19.2821
v  32.5507 135.8831 -0.7247
v  26.6768 135.8831 -18.8028
v  26.3434 134.5210 -19.3898
v  32.6260 134.5210 -0.0538
v  9.8953 135.8831 -31.3400
v  9.8953 134.5210 -31.3400
v  -10.4357 135.8831 -31.3400
v  -10.4357 134.5210 -31.3400
v  -26.8838 135.8831 -19.3898
v  -26.8838 134.5210 -19.3898
v  -33.1664 135.8831 -0.0538
v  -33.1664 134.5210 -0.0538
v  -26.8838 135.8831 19.2821
v  -26.8838 134.5210 19.2821
v  -10.4357 135.8831 31.2323
v  -10.4357 134.5210 31.2323
v  9.8953 135.8831 31.2323
v  9.8953 134.5210 31.2323
v  26.3434 135.8831 19.2821
v  26.3434 134.5210 19.2821
v  2.8955 133.4713 12.7253
v  -3.4359 133.4713 12.7253
v  -3.4359 139.1286 12.7253
v  2.8955 139.1286 12.7253
v  -10.6016 133.4713 31.8639
v  -10.6016 139.1286 31.8639
v  10.0612 139.1286 31.8639
v  10.0612 133.4713 31.8639
v  -0.2702 134.5210 -0.0538
# 100 vertices

vn 0.8070 -0.0700 -0.5863
vn 0.9975 -0.0700 -0.0000
vn 0.3083 -0.0700 -0.9487
vn -0.3083 -0.0700 -0.9487
vn -0.8070 -0.0700 -0.5863
vn -0.9975 -0.0700 0.0000
vn -0.8070 -0.0700 0.5863
vn -0.3083 -0.0700 0.9487
vn 0.3083 -0.0700 0.9487
vn 0.8070 -0.0700 0.5863
vn 0.0000 -1.0000 -0.0000
vn 0.7937 0.1937 -0.5767
vn 0.9811 0.1937 -0.0000
vn 0.3032 0.1937 -0.9330
vn -0.3032 0.1937 -0.9330
vn -0.7937 0.1937 -0.5767
vn -0.9811 0.1937 0.0000
vn -0.7937 0.1937 0.5767
vn -0.3032 0.1937 0.9330
vn 0.3032 0.1937 0.9330
vn 0.7937 0.1937 0.5767
vn 0.0000 1.0000 -0.0000
vn -0.9987 -0.0040 0.0511
vn -0.8368 -0.0030 0.5476
vn -0.7506 -0.0978 0.6535
vn -0.9928 -0.0894 -0.0796
vn -0.3153 0.0000 0.9490
vn -0.3151 -0.0045 0.9491
vn 0.3090 0.0000 0.9511
vn 0.8090 0.0000 0.5878
vn 1.0000 0.0000 -0.0000
vn 1.0000 0.0000 0.0000
vn 0.8090 0.0000 -0.5878
vn 0.3090 0.0000 -0.9511
vn -0.3090 0.0000 -0.9511
vn -0.8110 -0.0022 -0.5850
vn -0.8090 0.0000 -0.5878
vn 0.9999 0.0000 -0.0117
vn 0.8158 0.0000 -0.5783
vn 0.3201 0.0000 -0.9474
vn -1.0000 0.0000 0.0000
vn -0.8090 0.0000 0.5878
vn -0.3090 0.0000 0.9511
vn 0.8158 0.0000 0.5783
vn -1.0000 0.0000 0.0067
vn -0.8129 0.0000 0.5824
vn -0.8129 0.0000 -0.5824
vn 0.0000 0.0000 -1.0000
vn -0.9365 0.0000 -0.3506
vn 0.9365 0.0000 -0.3506
# 50 vertex normals

vt 0.5901 0.5672 0.0000
vt 0.4963 0.5672 0.0000
vt 0.4963 0.0009 0.0000
vt 0.5901 0.0009 0.0000
vt 0.6850 0.5672 0.0000
vt 0.6850 0.0009 0.0000
vt 0.7725 0.5672 0.0000
vt 0.7725 0.0009 0.0000
vt 0.8608 0.5672 0.0000
vt 0.8608 0.0009 0.0000
vt 0.9340 0.5672 0.0000
vt 0.9340 0.0009 0.0000
vt 0.1031 0.5672 0.0000
vt 0.0038 0.5672 0.0000
vt 0.0038 0.0009 0.0000
vt 0.1031 0.0009 0.0000
vt 0.2004 0.5672 0.0000
vt 0.2004 0.0009 0.0000
vt 0.2993 0.5672 0.0000
vt 0.2993 0.0009 0.0000
vt 0.3988 0.5672 0.0000
vt 0.3988 0.0009 0.0000
vt 0.4947 0.9366 -0.2500
vt 0.4194 0.8330 -0.2500
vt 0.4194 0.9610 -0.2500
vt 0.3704 0.6111 0.0000
vt 0.2764 0.6111 0.0000
vt 0.2764 0.5855 0.0000
vt 0.3704 0.5855 0.0000
vt 0.4639 0.6111 0.0000
vt 0.4639 0.5855 0.0000
vt 0.5566 0.6111 0.0000
vt 0.5566 0.5855 0.0000
vt 0.6486 0.6111 0.0000
vt 0.6486 0.5855 0.0000
vt 0.7399 0.6111 0.0000
vt 0.7399 0.5855 0.0000
vt 0.8311 0.6111 0.0000
vt 0.8311 0.5855 0.0000
vt 0.9329 0.6111 0.0000
vt 0.9329 0.5855 0.0000
vt 0.0893 0.6111 0.0000
vt 0.0014 0.6111 0.0000
vt 0.0014 0.5855 0.0000
vt 0.0893 0.5855 0.0000
vt 0.1826 0.6111 0.0000
vt 0.1826 0.5855 0.0000
vt 0.3704 0.6257 0.0000
vt 0.2764 0.6257 0.0000
vt 0.4639 0.6257 0.0000
vt 0.5566 0.6257 0.0000
vt 0.6486 0.6257 0.0000
vt 0.7399 0.6257 0.0000
vt 0.8311 0.6257 0.0000
vt 0.9329 0.6257 0.0000
vt 0.0893 0.6257 0.0000
vt 0.0014 0.6257 0.0000
vt 0.1826 0.6257 0.0000
vt 0.2764 0.6400 0.0000
vt 0.3704 0.6400 0.0000
vt 0.3704 0.6545 0.0000
vt 0.2764 0.6545 0.0000
vt 0.4639 0.6400 0.0000
vt 0.4639 0.6545 0.0000
vt 0.5566 0.6400 0.0000
vt 0.5566 0.6545 0.0000
vt 0.6486 0.6400 0.0000
vt 0.6486 0.6545 0.0000
vt 0.7399 0.6400 0.0000
vt 0.7399 0.6545 0.0000
vt 0.8311 0.6400 0.0000
vt 0.8311 0.6545 0.0000
vt 0.9329 0.6400 0.0000
vt 0.9329 0.6545 0.0000
vt 0.0014 0.6400 0.0000
vt 0.0893 0.6400 0.0000
vt 0.0893 0.6545 0.0000
vt 0.0014 0.6545 0.0000
vt 0.1826 0.6400 0.0000
vt 0.1826 0.6545 0.0000
vt 0.2764 0.6660 0.0000
vt 0.3704 0.6660 0.0000
vt 0.3704 0.6717 0.0000
vt 0.2764 0.6717 0.0000
vt 0.4639 0.6660 0.0000
vt 0.4639 0.6717 0.0000
vt 0.5566 0.6660 0.0000
vt 0.5566 0.6717 0.0000
vt 0.6486 0.6660 0.0000
vt 0.6486 0.6717 0.0000
vt 0.7399 0.6660 0.0000
vt 0.7399 0.6717 0.0000
vt 0.8311 0.6660 0.0000
vt 0.8311 0.6717 0.0000
vt 0.9329 0.6660 0.0000
vt 0.9329 0.6717 0.0000
vt 0.0014 0.6660 0.0000
vt 0.0893 0.6660 0.0000
vt 0.0893 0.6717 0.0000
vt 0.0014 0.6717 0.0000
vt 0.1826 0.6660 0.0000
vt 0.1826 0.6717 0.0000
vt 0.6161 0.7046 0.0000
vt 0.6534 0.7038 0.0000
vt 0.6503 0.7367 0.0000
vt 0.6206 0.7373 0.0000
vt 0.7052 0.7637 0.0000
vt 0.6879 0.7973 0.0000
vt 0.5855 0.7994 0.0000
vt 0.5668 0.7665 0.0000
vt 0.5412 0.8725 -0.2500
vt 0.5412 0.7934 -0.2500
vt 0.4947 0.7293 -0.2500
vt 0.4194 0.7049 -0.2500
vt 0.2976 0.8725 -0.2500
vt 0.3441 0.9366 -0.2500
vt 0.3441 0.7293 -0.2500
vt 0.2976 0.7934 -0.2500
vt 0.1410 0.9844 0.0000
vt 0.0546 0.9577 0.0000
vt 0.1410 0.8446 0.0000
vt 0.0012 0.8878 0.0000
vt 0.0012 0.8014 0.0000
vt 0.0546 0.7315 0.0000
vt 0.1410 0.7047 0.0000
vt 0.2274 0.7315 0.0000
vt 0.2809 0.8014 0.0000
vt 0.2809 0.8878 0.0000
vt 0.2274 0.9577 0.0000
# 129 texture coords

g Cylinder001
usemtl wire_115115115
f 1/1/1 2/2/2 3/3/2 
f 3/3/2 4/4/1 1/1/1 
f 5/5/3 1/1/1 4/4/1 
f 4/4/1 6/6/3 5/5/3 
f 7/7/4 5/5/3 6/6/3 
f 6/6/3 8/8/4 7/7/4 
f 9/9/5 7/7/4 8/8/4 
f 8/8/4 10/10/5 9/9/5 
f 11/11/6 9/9/5 10/10/5 
f 10/10/5 12/12/6 11/11/6 
f 13/13/7 11/14/6 12/15/6 
f 12/15/6 14/16/7 13/13/7 
f 15/17/8 13/13/7 14/16/7 
f 14/16/7 16/18/8 15/17/8 
f 17/19/9 15/17/8 16/18/8 
f 16/18/8 18/20/9 17/19/9 
f 19/21/10 17/19/9 18/20/9 
f 18/20/9 20/22/10 19/21/10 
f 19/21/10 20/22/10 3/3/2 
f 3/3/2 2/2/2 19/21/10 
f 20/23/11 21/24/11 3/25/11 
f 22/26/12 23/27/13 24/28/13 
f 24/28/13 25/29/12 22/26/12 
f 26/30/14 22/26/12 25/29/12 
f 25/29/12 27/31/14 26/30/14 
f 28/32/15 26/30/14 27/31/14 
f 27/31/14 29/33/15 28/32/15 
f 30/34/16 28/32/15 29/33/15 
f 29/33/15 31/35/16 30/34/16 
f 32/36/17 30/34/16 31/35/16 
f 31/35/16 33/37/17 32/36/17 
f 34/38/18 32/36/17 33/37/17 
f 33/37/17 35/39/18 34/38/18 
f 36/40/19 34/38/18 35/39/18 
f 35/39/18 37/41/19 36/40/19 
f 38/42/20 36/43/19 37/44/19 
f 37/44/19 39/45/20 38/42/20 
f 40/46/21 38/42/20 39/45/20 
f 39/45/20 41/47/21 40/46/21 
f 23/27/13 40/46/21 41/47/21 
f 41/47/21 24/28/13 23/27/13 
f 23/27/22 22/26/22 42/48/22 
f 42/48/22 43/49/22 23/27/22 
f 22/26/22 26/30/22 44/50/22 
f 44/50/22 42/48/22 22/26/22 
f 26/30/22 28/32/22 45/51/22 
f 45/51/22 44/50/22 26/30/22 
f 28/32/22 30/34/22 46/52/22 
f 46/52/22 45/51/22 28/32/22 
f 30/34/22 32/36/22 47/53/22 
f 47/53/22 46/52/22 30/34/22 
f 32/36/22 34/38/22 48/54/22 
f 48/54/22 47/53/22 32/36/22 
f 34/38/22 36/40/22 49/55/22 
f 49/55/22 48/54/22 34/38/22 
f 36/43/22 38/42/22 50/56/22 
f 50/56/22 49/57/22 36/43/22 
f 38/42/22 40/46/22 51/58/22 
f 51/58/22 50/56/22 38/42/22 
f 40/46/22 23/27/22 43/49/22 
f 43/49/22 51/58/22 40/46/22 
f 52/59/22 53/60/22 54/61/22 
f 54/61/22 55/62/22 52/59/22 
f 53/60/22 56/63/22 57/64/22 
f 57/64/22 54/61/22 53/60/22 
f 56/63/22 58/65/22 59/66/22 
f 59/66/22 57/64/22 56/63/22 
f 58/65/22 60/67/22 61/68/22 
f 61/68/22 59/66/22 58/65/22 
f 60/67/22 62/69/22 63/70/22 
f 63/70/22 61/68/22 60/67/22 
f 62/69/22 64/71/22 65/72/22 
f 65/72/22 63/70/22 62/69/22 
f 64/71/22 66/73/22 67/74/22 
f 67/74/22 65/72/22 64/71/22 
f 66/75/22 68/76/22 69/77/22 
f 69/77/22 67/78/22 66/75/22 
f 68/76/22 70/79/22 71/80/22 
f 71/80/22 69/77/22 68/76/22 
f 70/79/22 52/59/22 55/62/22 
f 55/62/22 71/80/22 70/79/22 
f 72/81/23 73/82/24 74/83/25 
f 74/83/25 75/84/26 72/81/23 
f 73/82/24 76/85/27 77/86/28 
f 77/86/28 74/83/25 73/82/24 
f 76/85/27 78/87/29 79/88/29 
f 79/88/29 77/86/28 76/85/27 
f 78/87/29 80/89/30 81/90/30 
f 81/90/30 79/88/29 78/87/29 
f 80/89/30 82/91/31 83/92/32 
f 83/92/32 81/90/30 80/89/30 
f 82/91/31 84/93/33 85/94/33 
f 85/94/33 83/92/32 82/91/31 
f 84/93/33 86/95/34 87/96/34 
f 87/96/34 85/94/33 84/93/33 
f 86/97/34 88/98/35 89/99/35 
f 89/99/35 87/100/34 86/97/34 
f 88/98/35 90/101/36 91/102/37 
f 91/102/37 89/99/35 88/98/35 
f 75/84/26 91/102/37 90/101/36 
f 90/101/36 72/81/23 75/84/26 
f 43/49/38 42/48/39 53/60/39 
f 53/60/39 52/59/38 43/49/38 
f 42/48/39 44/50/40 56/63/40 
f 56/63/40 53/60/39 42/48/39 
f 44/50/40 45/51/35 58/65/35 
f 58/65/35 56/63/40 44/50/40 
f 45/51/35 46/52/37 60/67/37 
f 60/67/37 58/65/35 45/51/35 
f 46/52/37 47/53/41 62/69/41 
f 62/69/41 60/67/37 46/52/37 
f 47/53/41 48/54/42 64/71/42 
f 64/71/42 62/69/41 47/53/41 
f 48/54/42 49/55/43 66/73/43 
f 66/73/43 64/71/42 48/54/42 
f 49/57/43 50/56/29 68/76/29 
f 68/76/29 66/75/43 49/57/43 
f 50/56/29 51/58/44 70/79/44 
f 70/79/44 68/76/29 50/56/29 
f 51/58/44 43/49/38 52/59/38 
f 52/59/38 70/79/44 51/58/44 
f 73/82/24 72/81/23 55/62/45 
f 55/62/45 54/61/46 73/82/24 
f 90/101/36 71/80/47 55/62/45 
f 55/62/45 72/81/23 90/101/36 
f 90/101/36 88/98/35 69/77/35 
f 69/77/35 71/80/47 90/101/36 
f 88/98/35 86/97/34 67/78/34 
f 67/78/34 69/77/35 88/98/35 
f 86/95/34 84/93/33 65/72/33 
f 65/72/33 67/74/34 86/95/34 
f 84/93/33 82/91/31 63/70/31 
f 63/70/31 65/72/33 84/93/33 
f 82/91/31 80/89/30 61/68/30 
f 61/68/30 63/70/31 82/91/31 
f 80/89/30 78/87/29 59/66/29 
f 59/66/29 61/68/30 80/89/30 
f 78/87/29 76/85/27 57/64/27 
f 57/64/27 59/66/29 78/87/29 
f 76/85/27 73/82/24 54/61/46 
f 54/61/46 57/64/27 76/85/27 
f 92/103/48 93/104/48 94/105/48 
f 94/105/48 95/106/48 92/103/48 
f 94/105/49 93/104/49 96/107/49 
f 96/107/49 97/108/49 94/105/49 
f 95/106/22 94/105/22 97/108/22 
f 97/108/22 98/109/22 95/106/22 
f 92/103/50 95/106/50 98/109/50 
f 98/109/50 99/110/50 92/103/50 
f 18/111/11 16/112/11 21/24/11 
f 14/113/11 12/114/11 21/24/11 
f 21/24/11 6/115/11 4/116/11 
f 12/114/11 10/117/11 21/24/11 
f 21/24/11 4/116/11 3/25/11 
f 16/112/11 14/113/11 21/24/11 
f 20/23/11 18/111/11 21/24/11 
f 21/24/11 8/118/11 6/115/11 
f 10/117/11 8/118/11 21/24/11 
f 75/119/22 74/120/22 100/121/22 
f 74/120/22 77/122/22 100/121/22 
f 77/122/22 79/123/22 100/121/22 
f 79/123/22 81/124/22 100/121/22 
f 81/124/22 83/125/22 100/121/22 
f 83/125/22 85/126/22 100/121/22 
f 85/126/22 87/127/22 100/121/22 
f 87/127/22 89/128/22 100/121/22 
f 89/128/22 91/129/22 100/121/22 
f 91/129/22 75/119/22 100/121/22 
# 168 faces

